<?xml version="1.0" encoding="iso-8859-1"?>
<!-- Uploaded to: SVG Repo, www.svgrepo.com, Generator: SVG Repo Mixer Tools -->
<!DOCTYPE svg PUBLIC "-//W3C//DTD SVG 1.1//EN" "http://www.w3.org/Graphics/SVG/1.1/DTD/svg11.dtd">
<svg fill="#000000" version="1.1" id="Capa_1" xmlns="http://www.w3.org/2000/svg" xmlns:xlink="http://www.w3.org/1999/xlink" 
	 width="800px" height="800px" viewBox="0 0 62.503 62.503"
	 xml:space="preserve">
<g>
	<g>
		<path d="M29.613,21.141c0.557-0.169,0.938-0.523,0.856-0.795l-2.53-8.32c-0.082-0.271-0.599-0.353-1.154-0.184
			c-2.758,0.839-4.229,3.47-3.422,6.121C24.167,20.613,26.855,21.979,29.613,21.141z"/>
		<path d="M14.285,22.462c0.24,0.787,1.069,1.229,1.858,0.991l6.197-1.886c0.787-0.238,1.23-1.07,0.992-1.856l-0.969-3.184
			c-0.238-0.787-1.07-1.23-1.857-0.991l-6.197,1.885c-0.787,0.24-1.229,1.071-0.991,1.857L14.285,22.462z M15.308,18.49l4.963-1.51
			c0.277-0.084,0.572,0.072,0.656,0.351c0.084,0.277-0.072,0.57-0.35,0.654l-4.964,1.511c-0.275,0.084-0.57-0.072-0.654-0.351
			C14.874,18.869,15.031,18.574,15.308,18.49z"/>
		<path d="M30.958,15.653c-0.223-0.729-0.992-1.14-1.723-0.918l0.805,2.64C30.769,17.152,31.179,16.381,30.958,15.653z"/>
		<path d="M55.128,14.798c-2.716-7.637-9.363-13.3-17.353-14.78c-0.5-0.093-0.996,0.188-1.175,0.663
			c-0.18,0.476,0.007,1.012,0.445,1.273c0.868,0.518,1.791,1.87,2.35,3.445c0.562,1.575,0.699,3.206,0.354,4.155
			c-0.176,0.474,0.016,1.005,0.449,1.264c0.866,0.519,1.791,1.87,2.352,3.445c0.472,1.326,0.64,2.688,0.476,3.652
			c-0.338-0.157-0.733-0.189-1.116-0.057l-4.854,1.697c-0.43,0.149-0.737,0.479-0.893,0.869l-15.949,5.57v-1.265
			c0-0.581-0.469-1.051-1.049-1.051c-0.582,0-1.053,0.47-1.053,1.051v15.022c-0.57,0.265-0.974,0.841-0.974,1.512
			s0.4,1.247,0.974,1.512v2.819l-4.451,6.486c0.018-0.119-0.029-0.244-0.135-0.317c-0.148-0.104-0.354-0.067-0.457,0.082l-1.5,2.157
			c-0.104,0.146-0.066,0.354,0.084,0.458c0.121,0.084,0.276,0.068,0.389-0.02l-4.348,6.334c-0.156,0.228-0.207,0.492-0.17,0.743
			c-0.857,0.082-1.459,0.26-1.459,0.468c0,0.285,1.118,0.518,2.495,0.518c1.38,0,2.496-0.231,2.496-0.518
			c0-0.197-0.543-0.367-1.332-0.453l8.39-12.227v9.155c0,0.122,0.024,0.237,0.062,0.347c-0.887,0.08-1.508,0.261-1.508,0.474
			c0,0.286,1.119,0.519,2.496,0.519c1.377,0,2.496-0.231,2.496-0.519c0-0.212-0.621-0.394-1.511-0.474
			c0.039-0.109,0.064-0.226,0.064-0.347v-9.155l8.389,12.227c-0.789,0.086-1.334,0.256-1.334,0.453c0,0.285,1.119,0.518,2.496,0.518
			c1.379,0,2.497-0.231,2.497-0.518c0-0.208-0.601-0.387-1.459-0.468c0.037-0.251-0.014-0.517-0.17-0.743l-4.328-6.307
			c0.109,0.064,0.248,0.065,0.357-0.011c0.147-0.104,0.186-0.31,0.082-0.458l-1.5-2.156c-0.104-0.149-0.308-0.188-0.457-0.082
			c-0.101,0.068-0.146,0.185-0.136,0.298l-4.438-6.467v-2.816c0.574-0.265,0.975-0.841,0.975-1.512s-0.399-1.248-0.975-1.512V28.22
			l16.645-5.812c0.363,0.21,0.812,0.272,1.236,0.123l4.854-1.697c0.402-0.142,0.703-0.438,0.863-0.798
			c0.721,0.653,1.431,1.792,1.892,3.09c0.562,1.576,0.696,3.208,0.353,4.155c-0.174,0.476,0.017,1.007,0.449,1.265
			c0.868,0.517,1.791,1.87,2.352,3.444c0.562,1.574,0.697,3.205,0.354,4.156c-0.082,0.229-0.085,0.479-0.005,0.708l0.011,0.025
			c0.123,0.354,0.428,0.616,0.799,0.686c0.063,0.012,0.129,0.02,0.19,0.02c0.306,0,0.601-0.135,0.802-0.37
			C56.263,31.025,57.845,22.436,55.128,14.798z"/>
	</g>
</g>
</svg>