<?xml version="1.0" encoding="iso-8859-1"?>
<!-- Uploaded to: SVG Repo, www.svgrepo.com, Generator: SVG Repo Mixer Tools -->
<!DOCTYPE svg PUBLIC "-//W3C//DTD SVG 1.1//EN" "http://www.w3.org/Graphics/SVG/1.1/DTD/svg11.dtd">
<svg fill="#000000" height="800px" width="800px" version="1.1" id="Capa_1" xmlns="http://www.w3.org/2000/svg" xmlns:xlink="http://www.w3.org/1999/xlink" 
	 viewBox="0 0 323.801 323.801" xml:space="preserve">
<g id="_x30_5-Proffessional_video_camera">
	<path d="M310.957,113.059c8.017-9.638,12.844-22.024,12.844-35.538c0-30.718-24.903-55.62-55.62-55.62
		c-26.049,0-47.908,17.91-53.954,42.088h-31.321c-6.043-24.178-27.903-42.088-53.95-42.088c-30.719,0-55.62,24.902-55.62,55.62
		c0,13.514,4.822,25.9,12.839,35.538H310.957z"/>
	<path d="M311.663,131.795H85.472c-2.312,0-4.181,1.871-4.181,4.181v98.886c0,2.309,1.869,4.182,4.181,4.182h68.775l33.446,27.735
		h21.743V301.9h57.701v-35.122h21.322l23.203-27.735c2.308,0,4.181-1.873,4.181-4.182v-98.886
		C315.844,133.666,313.971,131.795,311.663,131.795z"/>
	<path d="M8.989,124.682c-1.705-1.273-3.983-1.477-5.886-0.522C1.201,125.113,0,127.059,0,129.186v112.466
		c0,2.128,1.201,4.074,3.103,5.027c0.797,0.399,1.66,0.596,2.519,0.596c1.191,0,2.376-0.378,3.366-1.118l47.717-35.651h14.13
		v-50.174H56.704L8.989,124.682z"/>
</g>
</svg>